PathFileType	4	(X/Y/Z)	C:\Users\Basilio\Documents\Thesis Gigler\squatting_fais\c3dfiles\019\SJ_pre2\markers_experimental.trc
DataRate	CameraRate	NumFrames	NumMarkers	Units	OrigDataRate	OrigDataStartFrame	OrigNumFrames
200.000000	200.000000	4	59	mm	200.000000	1118	1278
Frame#	Time	FHD			LBHD			RBHD			C7			T10			CLAV			LSHO			LUUPA			LMUPA			LDUPA			LLEP			LMEP			LRAD			LUL			LRFIN			RSHO			RUPA1			RMUPA			RDUPA			RLEP			RMEP			RRAD			RUL			RUFIN			LASI			RASI			USACR			LSACR			RSACR			LTHI1			LTHI2			LTHI3			LTHI4			LLFC			LTIB1			LTIB2			LTIB3			LTIB4			LLMAL			LMMAL			LHEE			LMT1			LMT2			LMT5			RTHI			RTHI2			RTHI3			RTHI4			RLFC			RTIB1			RTIB2			RTIB3			RTIB4			RLMAL			RMMAL			RHEE			RMT1			RMT2			RMT5			
		X1	Y1	Z1	X2	Y2	Z2	X3	Y3	Z3	X4	Y4	Z4	X5	Y5	Z5	X6	Y6	Z6	X7	Y7	Z7	X8	Y8	Z8	X9	Y9	Z9	X10	Y10	Z10	X11	Y11	Z11	X12	Y12	Z12	X13	Y13	Z13	X14	Y14	Z14	X15	Y15	Z15	X16	Y16	Z16	X17	Y17	Z17	X18	Y18	Z18	X19	Y19	Z19	X20	Y20	Z20	X21	Y21	Z21	X22	Y22	Z22	X23	Y23	Z23	X24	Y24	Z24	X25	Y25	Z25	X26	Y26	Z26	X27	Y27	Z27	X28	Y28	Z28	X29	Y29	Z29	X30	Y30	Z30	X31	Y31	Z31	X32	Y32	Z32	X33	Y33	Z33	X34	Y34	Z34	X35	Y35	Z35	X36	Y36	Z36	X37	Y37	Z37	X38	Y38	Z38	X39	Y39	Z39	X40	Y40	Z40	X41	Y41	Z41	X42	Y42	Z42	X43	Y43	Z43	X44	Y44	Z44	X45	Y45	Z45	X46	Y46	Z46	X47	Y47	Z47	X48	Y48	Z48	X49	Y49	Z49	X50	Y50	Z50	X51	Y51	Z51	X52	Y52	Z52	X53	Y53	Z53	X54	Y54	Z54	X55	Y55	Z55	X56	Y56	Z56	X57	Y57	Z57	X58	Y58	Z58	X59	Y59	Z59	

1119	5.59	-186.1139221191407	1529.474609375	-627.7344970703126	-141.7202606201172	1592.138549804688	-811.6057128906252	-249.1121215820313	1606.794799804688	-725.9979248046876	-338.3211975097657	1479.282836914063	-842.804626464844	-451.5453491210939	1190.83203125	-890.7255859375002	-227.924789428711	1380.375	-826.1106567382815	-239.3681945800782	1474.897583007813	-975.7968750000002	-290.3518676757813	1353.635375976563	-1102.554443359375	-294.3708190917969	1308.237548828125	-1084.481567382813	-319.8823242187501	1304.672973632813	-1138.381469726563	-373.3133544921876	1270.75537109375	-1196.900268554688	-435.1847229003907	1270.119018554688	-1166.43603515625	-376.2026672363282	1039.05615234375	-1086.267944335938	-362.9330139160157	1022.325317382813	-1151.671508789063	-327.1066894531251	1013.749389648438	-1065.089599609375	-318.5638732910157	1435.416748046875	-706.0844116210939	-469.4642639160157	1349.510009765625	-627.3847045898439	-446.9949645996095	1314.816284179688	-599.7938842773439	-504.5110473632814	1303.434448242188	-587.4820556640626	-531.3990478515626	1235.776000976563	-546.8663940429689	-572.9736938476564	1226.211303710938	-598.8516845703126	-412.7191772460939	1023.189208984375	-622.9080200195314	-420.0993041992189	1003.521240234375	-558.4447021484376	-349.4421386718751	991.9492797851565	-618.6562500000001	-291.0157165527344	973.3887329101565	-997.7076416015627	-284.6780700683594	972.9293212890627	-788.1633911132815	-454.617645263672	1041.175903320313	-889.0313110351565	-458.0547790527345	1007.164855957031	-917.0053710937502	-456.1932983398439	1010.26220703125	-859.858825683594	-369.0154724121094	722.8767089843751	-1097.778442382813	-330.2777099609376	648.9933471679689	-1114.141967773438	-283.7227478027344	654.0252685546876	-1103.102783203125	-352.4852600097657	592.0161132812501	-1107.191772460938	-351.0724487304688	495.9558715820314	-1109.515258789063	-302.1610412597657	355.1501770019532	-1111.849975585938	-367.7789306640626	321.4822082519532	-1159.182983398438	-327.9682617187501	314.0378723144532	-1145.447998046875	-324.4948425292969	229.3367462158204	-1126.769409179688	-401.4886779785157	103.5763702392578	-1160.280151367188	-368.4935302734376	99.94879150390628	-1083.768920898438	-444.2595214843751	45.99989700317384	-1104.415161132813	-234.4552307128907	57.97438812255861	-1128.824584960938	-238.1885070800782	57.76076889038087	-1168.533569335938	-287.6199340820313	34.38621902465821	-1214.250854492188	-336.7356262207032	787.1647949218752	-689.3756103515626	-295.4167175292969	734.2395629882814	-685.4000244140626	-265.4059753417969	734.7569580078126	-700.6127319335939	-313.9549865722657	655.0774536132814	-675.3563232421876	-334.0605773925782	491.739715576172	-689.0076904296876	-284.6080627441407	305.9746398925782	-709.2563476562501	-351.3227233886719	233.5267181396485	-657.7802734375001	-310.8758850097657	228.5453186035157	-679.9857788085939	-309.7701721191407	181.1384429931641	-715.3679809570314	-379.7095336914063	99.31832122802737	-676.1043701171876	-344.2763977050782	96.54009246826175	-745.4694824218751	-418.9458007812501	44.5561752319336	-737.9360961914064	-216.3038787841797	54.17711639404298	-687.1992797851564	-226.7668457031251	60.73345947265626	-642.8694458007814	-280.9299926757813	40.8960304260254	-604.4629516601564	
1120	5.595	-185.7388916015625	1529.489135742188	-627.3196411132814	-141.852279663086	1592.3271484375	-811.2031250000002	-248.445053100586	1607.002563476563	-725.3909912109376	-338.5133666992188	1479.362060546875	-842.1472778320315	-451.6045227050782	1190.879272460938	-889.9497070312502	-228.0558471679688	1380.488037109375	-825.5120849609377	-239.4988708496094	1474.831787109375	-975.2133789062502	-290.5458679199219	1353.585083007813	-1101.91162109375	-294.5611267089844	1308.1513671875	-1083.810913085938	-320.0936279296876	1304.645874023438	-1137.667358398438	-373.5287475585938	1270.777099609375	-1196.267822265625	-435.4903869628907	1270.064575195313	-1165.685668945313	-376.6135559082032	1038.916137695313	-1085.349731445313	-363.0527648925782	1022.215515136719	-1151.025512695313	-327.0998535156251	1013.77685546875	-1064.629516601563	-318.6959533691407	1435.306030273438	-705.3377075195314	-469.1812438964845	1349.172607421875	-626.1019897460939	-446.505096435547	1314.472534179688	-598.7758789062501	-503.8659057617189	1302.880737304688	-586.1885986328126	-530.4468994140626	1235.249389648438	-545.6949462890626	-572.8215942382814	1226.104858398438	-597.4548950195314	-412.4577026367189	1022.931640625	-624.1870727539064	-418.4611816406251	1002.726989746094	-559.1814575195314	-349.3442382812501	991.5103759765627	-620.8430786132814	-291.1660461425782	973.4764404296877	-997.0541992187502	-284.7804565429688	972.850524902344	-787.5509033203127	-454.6834716796876	1041.333984375	-888.3259887695315	-458.2241516113282	1007.257995605469	-916.2888183593752	-456.2945861816407	1010.408935546875	-859.0758056640627	-368.7612609863282	722.8815307617189	-1097.26220703125	-329.9272460937501	649.1849975585939	-1113.865234375	-283.4888610839844	654.3305664062501	-1102.799194335938	-351.8046569824219	592.1023559570314	-1106.7841796875	-350.5703735351563	496.2122192382814	-1109.505004882813	-301.5971679687501	355.3074645996094	-1111.995971679688	-367.2222900390626	321.8363342285157	-1159.12890625	-327.5585937500001	314.2778625488282	-1145.499633789063	-324.2196960449219	229.6276245117188	-1127.104370117188	-401.3471069335939	103.9514846801758	-1160.376098632813	-368.2248535156251	100.2246704101563	-1083.925170898438	-451.520721435547	50.05265426635744	-1107.583862304688	-234.3073883056641	58.06755447387697	-1129.033325195313	-238.4034576416016	57.65763092041017	-1168.363525390625	-287.6241760253907	34.36101150512696	-1214.25537109375	-336.8443298339844	787.2232666015627	-688.7682495117189	-295.7072448730469	735.5567626953126	-684.6157226562501	-265.7360839843751	735.1994628906251	-700.1298217773439	-314.1524353027344	655.1238403320314	-674.9153442382814	-334.2689819335938	491.7486572265626	-688.7493896484376	-284.7659301757813	306.0490417480469	-709.0989990234376	-351.3406982421876	233.5045013427735	-657.7056274414064	-310.9313354492188	228.4902496337891	-679.8861694335939	-309.8057861328126	181.0966033935547	-715.3148193359376	-379.6966247558594	99.27162170410159	-676.0293579101564	-344.3544921875001	96.61699676513675	-745.5112304687501	-418.8396911621095	44.52906036376954	-737.9353027343751	-216.3093414306641	54.21702194213869	-687.2514648437501	-226.7646942138672	60.7245216369629	-642.8616333007814	-280.8949890136719	40.86484146118165	-604.4710083007814	
1121	5.600000000000001	-185.3397827148438	1529.702514648438	-626.8920898437501	-141.9819946289063	1592.5849609375	-810.9178466796877	-248.3929138183594	1607.144897460938	-724.7775878906251	-338.8159790039063	1479.381469726563	-841.5172119140627	-451.6530151367189	1190.981811523438	-889.0687255859377	-228.1174316406251	1380.51513671875	-824.824890136719	-239.6061706542969	1474.762939453125	-974.641052246094	-290.8077392578126	1353.562133789063	-1101.304565429688	-294.7512817382813	1308.07177734375	-1083.220825195313	-320.3302307128907	1304.574951171875	-1137.09130859375	-373.8563232421876	1270.7529296875	-1195.541381835938	-435.7381286621095	1270.007568359375	-1164.942626953125	-376.3422241210938	1038.865844726563	-1084.999389648438	-363.3346557617188	1022.181213378906	-1150.4541015625	-327.2089843750001	1013.831970214844	-1064.156860351563	-318.6410217285157	1435.182983398438	-704.5744018554689	-468.7222290039064	1348.969482421875	-624.7927246093751	-445.9016113281251	1314.007568359375	-597.7273559570314	-503.1157226562501	1302.417358398438	-584.7495727539064	-529.3740844726564	1234.153930664063	-544.8601684570314	-571.5908813476564	1225.21435546875	-596.0479736328126	-411.9809875488282	1022.621154785156	-625.2567749023439	-418.0144653320314	1002.636413574219	-560.7936401367189	-349.0551757812501	990.8774414062502	-623.0133666992189	-291.5302734375001	973.543395996094	-996.3740844726565	-284.8540649414063	972.903747558594	-786.817321777344	-454.8442382812501	1041.441528320313	-887.5283813476565	-458.4035644531251	1007.421630859375	-915.5747680664065	-456.4107360839845	1010.49755859375	-858.2636718750002	-368.9872131347657	723.1424560546876	-1097.063598632813	-329.5629882812501	649.3214111328126	-1113.523803710938	-283.1581115722657	654.6307373046876	-1102.41162109375	-352.9736328125001	592.7584838867189	-1108.094848632813	-349.7801208496094	496.3912353515626	-1109.3984375	-300.9939880371094	355.5103149414063	-1112.116455078125	-366.9381103515626	322.1791992187501	-1159.098510742188	-327.1214294433594	314.5302124023438	-1145.644165039063	-323.7963256835938	229.9397888183594	-1127.23681640625	-401.229217529297	104.2017822265625	-1160.474487304688	-368.0516357421876	100.650863647461	-1084.008422851563	-451.4707031250001	50.38259506225587	-1107.697998046875	-234.8541259765626	58.20816040039064	-1129.157958984375	-238.7465820312501	57.58537673950197	-1168.071044921875	-287.5713500976563	34.32898330688477	-1214.271606445313	-337.0208129882813	787.269226074219	-688.2103271484376	-295.8634033203126	736.6490478515626	-683.8233642578126	-265.6954040527344	734.8159179687501	-699.5780639648439	-314.3599243164063	655.1216430664064	-674.5418701171876	-334.4517822265626	491.8005676269532	-688.3987426757814	-284.8757019042969	306.0316772460938	-708.9199829101564	-351.4121398925782	233.453598022461	-657.5212402343751	-311.0404968261719	228.4707641601563	-679.8092041015626	-309.8179321289063	181.1412200927735	-715.2214965820314	-379.6690979003907	99.23435211181643	-675.9799804687501	-344.3359985351563	96.67185211181643	-745.5543212890626	-418.782196044922	44.45882415771485	-737.9616088867189	-216.3312377929688	54.21360778808595	-687.2093505859376	-226.7375793457032	60.7079315185547	-642.8374633789064	-280.9740905761719	40.92273330688477	-604.4739379882814	
1122	5.605	-184.9044494628907	1529.852416992188	-626.4951171875001	-142.0700225830078	1592.803344726563	-810.6052856445315	-248.3337097167969	1607.285278320313	-724.2334594726564	-338.4374694824219	1479.472534179688	-840.7487792968752	-451.7696228027345	1191.09619140625	-888.3409423828127	-228.2402038574219	1380.567504882813	-824.2048950195315	-239.7358398437501	1474.697387695313	-974.102966308594	-291.0766296386719	1353.511108398438	-1100.681640625	-295.0282287597657	1308.014282226563	-1082.610595703125	-320.6557617187501	1304.51953125	-1136.44384765625	-374.1764221191407	1270.731323242188	-1194.876953125	-436.0352478027345	1269.927124023438	-1164.237915039063	-376.3204040527344	1038.857177734375	-1084.586303710938	-363.5482177734376	1022.095642089844	-1149.852416992188	-327.4024658203126	1013.817687988281	-1063.591186523438	-318.6777038574219	1435.017822265625	-703.8398437500001	-468.2850952148439	1348.555053710938	-623.4711303710939	-445.3077087402345	1313.532104492188	-596.6147460937501	-502.4132690429689	1301.751098632813	-583.4764404296876	-528.2313842773439	1233.126953125	-543.8364257812501	-570.9511108398439	1224.728149414063	-594.6673583984376	-411.7965393066407	1022.358215332031	-626.5573730468751	-416.1416931152345	1002.444396972656	-561.7258911132814	-348.8545532226563	990.3247070312502	-625.2744140625001	-291.6821594238282	973.617614746094	-995.7620239257815	-284.9905090332032	972.8291015625002	-786.211120605469	-455.1510314941407	1041.499633789063	-886.8140869140627	-458.7496948242189	1007.474487304688	-914.896667480469	-456.4778137207032	1010.550598144531	-857.5675048828127	-368.1987609863282	723.0160522460939	-1096.085083007813	-329.2333374023438	649.6060791015626	-1113.271850585938	-282.8935852050782	655.0279541015626	-1102.14501953125	-352.4724121093751	592.9673461914064	-1107.936889648438	-349.0758972167969	496.6302490234376	-1109.327392578125	-300.3406066894532	355.7193603515626	-1112.274169921875	-367.0472412109376	322.6828308105469	-1158.426147460938	-326.6120605468751	314.8056335449219	-1145.723266601563	-323.3072509765626	230.1382904052735	-1127.350830078125	-401.0486450195314	104.5730514526367	-1160.52490234375	-367.9344177246094	101.1352310180664	-1084.067016601563	-451.3992614746095	50.81002807617189	-1107.693359375	-234.7594299316407	58.25148391723634	-1129.363647460938	-239.5222930908204	57.40794754028322	-1167.713500976563	-287.6036987304688	34.33004760742188	-1214.261474609375	-337.2210693359376	787.3211669921877	-687.6913452148439	-296.1732177734376	737.9030761718751	-683.1292724609376	-266.0806579589844	735.1519775390626	-699.2299194335939	-314.4526062011719	655.0852661132814	-674.0712280273439	-334.7413024902344	491.7516174316407	-688.0463256835939	-285.0902709960938	306.0168151855469	-708.8338623046876	-351.4544677734376	233.3903350830079	-657.4441528320314	-311.0923767089844	228.4769287109376	-679.7263183593751	-309.8944091796876	181.17138671875	-715.2285156250001	-379.5729064941407	99.20483398437503	-675.8725585937501	-344.2305603027344	96.65276336669925	-745.5831298828126	-418.8848876953126	44.54692459106446	-737.9102783203126	-216.2385406494141	54.200008392334	-687.1920166015626	-226.7639160156251	60.73508071899415	-642.8331298828126	-281.2548217773438	41.12892532348634	-604.4295043945314	
